<svg xmlns="http://www.w3.org/2000/svg" viewBox="0 0 566.93 566.93"><defs><style>.cls-1{fill:#3f5354;}</style></defs><g id="graphics"><path class="cls-1" d="M518.22,278c9.61-47.3-14.23-99.73-65.41-116.51C437.3,117.08,395.92,91,343.58,93.1,187.88,38.2,62.84,161.16,81.48,207.64,45.54,220.75,35.54,263.45,50,283.19c-14.29,12.82-21.74,34-17.9,54,2.73,14.19,15.49,47.2,74.93,47.2a381,381,0,0,0,51.51-3.25c117.43-.05,152.26,2,185.66,70.79,12.16,25,21.34,35.72,30.71,35.72,15.83,0,17.87-26.45,17.87-49.48,0-54.26,4.6-51.42,96.05-51.42,27.13,0,38.43-13.69,43.12-25.18C543.26,333.9,527.33,293,518.22,278ZM303.16,100.13C238.82,119.88,180,194.33,98.89,203.9,75.07,190.18,165.31,74.94,303.16,100.13ZM98.39,221.44c51.89-5.44,95.22-35.29,145.39-69.86,24.39-16.8,52.69-38.75,100.12-41.1,41.62-1.76,74.1,15.46,89.71,46.71-18.53-2.48-41.21-.9-68.63,8.06C258.62,200,180.27,306.3,66.32,275.23,52.46,270.93,57.75,225.69,98.39,221.44ZM47.55,333.63c-3-15.69,4.65-33.07,17.63-40.82,119.57,30.67,201.77-77.4,304.3-110.89,93.57-30.56,138.54,28.82,134.78,81.41-60-46.53-154.5,8.06-217.84,47.42C237.2,341.34,195.91,367,107,367,73.3,367,51.63,354.86,47.55,333.63Zm470,20.84c-4.11,10-13.5,14.92-28.71,14.92-48.67,0-84.6-3-101.12,16.37-17.78,20.83-6.14,62.7-13.81,83.45-2.36-2.19-7.46-8.36-15.76-25.45-29.85-61.45-63-75.81-135.7-79.07,26-10.38,48-24,71.77-38.8,43.8-27.22,103.18-62.7,153.25-62.7,24.32,0,43.81,7.81,56.37,22.59C511,294.79,526,333.71,517.52,354.47Z"/></g></svg>