<svg xmlns="http://www.w3.org/2000/svg" viewBox="0 0 48 48">
  <defs>
    <linearGradient id="g" x1="6" y1="4" x2="42" y2="44" gradientUnits="userSpaceOnUse">
      <stop offset="0" stop-color="#3ac793"/>
      <stop offset="0.55" stop-color="#0f9b6a"/>
      <stop offset="1" stop-color="#0b7a53"/>
    </linearGradient>
  </defs>
  <path d="M24 2.5c8.2-.9 17.7 4.6 20.5 13.6 2.4 7.8-.2 17.9-6.5 23.1-6.9 5.7-18.5 7-25.4 1.6C6 35.6 2.3 25.8 5 17.4 7.6 9.3 15.4 3.4 24 2.5Z" fill="url(#g)"/>
  <path d="M11 27.5c4.4-6.8 8.2-6.8 12.6 0s8.2 6.8 12.6 0" fill="none" stroke="#fff" stroke-width="2.6" stroke-linecap="round" opacity="0.92"/>
  <path d="M16.5 20.2c.8-5.6 5.4-8.6 10.6-8.9 4.9-.2 8 2.3 8.4 6.1-3.4-.6-6.6.5-9.2 3-2.5 2.4-4.4 2.9-9.8-.2Z" fill="#fff" opacity="0.95"/>
  <circle cx="36.5" cy="11" r="3.1" fill="#e6d4b5"/>
</svg>
